# xmcd
#
# Track frame offsets:
#	150
#	13385
#	25012
#	36877
#	50400
#	62895
#	78025
#	91797
#	102545
#	113340
#	127507
#	139135
#	149345
#	166620
#
# Disc length: 2420 seconds
#
# Revision: 1
# Processed by: cddbd v1.4PL0 Copyright (c) Steve Scherf et al.
# Submitted via: audiograbber 1.80
#
DISCID=a709720e
DTITLE=Kenny Rogers - The best of
DYEAR=1900
DGENRE=
TTITLE0=RUBY DON'T TAKE YOUR LOVE TO TOWN
TTITLE1=ME and BOBBY MC GHEE
TTITLE2=ELVIRA
TTITLE3=SHINE ON RUBY MOUNTAIN
TTITLE4=REUBEN JAMES
TTITLE5=TELL IT ALL BROTHER
TTITLE6=I'M GOING TO SING YOU A SAD SONG SUZIE
TTITLE7=WE ALL GOTTA HELP EACH OTHER
TTITLE8=SHE EVEN WOKE ME UP TO SAY GOODBEY
TTITLE9=SUNSHINE
TTITLE10=POEM FROM MY LITTLE LADY
TTITLE11=WHERE DOES ROSY GO
TTITLE12=SOMETHINGS BURNING
TTITLE13=CONDITIONS
EXTD=
EXTT0=
EXTT1=
EXTT2=
EXTT3=
EXTT4=
EXTT5=
EXTT6=
EXTT7=
EXTT8=
EXTT9=
EXTT10=
EXTT11=
EXTT12=
EXTT13=
PLAYORDER=
